<?xml version="1.0" standalone="no"?>
<svg xmlns:xlink="http://www.w3.org/1999/xlink" id="wave" style="transform:rotate(0deg); transition: 0.3s" viewBox="0 0 1440 160" version="1.1" xmlns="http://www.w3.org/2000/svg"><defs><linearGradient id="sw-gradient-0" x1="0" x2="0" y1="1" y2="0"><stop stop-color="rgba(31, 40, 51, 1)" offset="0%"/><stop stop-color="rgba(31, 40, 51, 1)" offset="100%"/></linearGradient></defs><path style="transform:translate(0, 0px); opacity:1" fill="url(#sw-gradient-0)" d="M0,64L80,77.3C160,91,320,117,480,109.3C640,101,800,59,960,56C1120,53,1280,91,1440,106.7C1600,123,1760,117,1920,96C2080,75,2240,37,2400,26.7C2560,16,2720,32,2880,56C3040,80,3200,112,3360,114.7C3520,117,3680,91,3840,80C4000,69,4160,75,4320,80C4480,85,4640,91,4800,80C4960,69,5120,43,5280,40C5440,37,5600,59,5760,58.7C5920,59,6080,37,6240,40C6400,43,6560,69,6720,77.3C6880,85,7040,75,7200,77.3C7360,80,7520,96,7680,101.3C7840,107,8000,101,8160,93.3C8320,85,8480,75,8640,66.7C8800,59,8960,53,9120,48C9280,43,9440,37,9600,53.3C9760,69,9920,107,10080,114.7C10240,123,10400,101,10560,80C10720,59,10880,37,11040,42.7C11200,48,11360,80,11440,96L11520,112L11520,160L11440,160C11360,160,11200,160,11040,160C10880,160,10720,160,10560,160C10400,160,10240,160,10080,160C9920,160,9760,160,9600,160C9440,160,9280,160,9120,160C8960,160,8800,160,8640,160C8480,160,8320,160,8160,160C8000,160,7840,160,7680,160C7520,160,7360,160,7200,160C7040,160,6880,160,6720,160C6560,160,6400,160,6240,160C6080,160,5920,160,5760,160C5600,160,5440,160,5280,160C5120,160,4960,160,4800,160C4640,160,4480,160,4320,160C4160,160,4000,160,3840,160C3680,160,3520,160,3360,160C3200,160,3040,160,2880,160C2720,160,2560,160,2400,160C2240,160,2080,160,1920,160C1760,160,1600,160,1440,160C1280,160,1120,160,960,160C800,160,640,160,480,160C320,160,160,160,80,160L0,160Z"/></svg>